<svg width="26" height="19" viewBox="0 0 26 19" fill="none" xmlns="http://www.w3.org/2000/svg">
<path fill-rule="evenodd" clip-rule="evenodd" d="M3.33105 4.62193C3.1615 4.83979 2.98249 5.24074 2.88131 5.62938C2.61399 6.65625 2.82833 7.885 3.46417 8.97024C3.68772 9.3518 4.27964 9.99951 4.61847 10.2332C5.15957 10.6065 5.6094 10.7667 6.1919 10.7936C7.17121 10.8388 7.92513 10.3353 8.33698 9.36107C8.49774 8.98081 8.57329 8.59713 8.586 8.09683C8.59822 7.6172 8.5541 7.27515 8.41823 6.79542C8.0339 5.4386 7.11274 4.35071 5.973 3.90767C5.32699 3.65654 4.52712 3.70431 3.98661 4.02627C3.78919 4.14387 3.49532 4.41087 3.33105 4.62193ZM10.7515 1.74956C10.1021 2.66284 10.0346 4.16565 10.5864 5.42944C10.8367 6.00254 10.9887 6.23303 11.4485 6.73641C11.9026 7.23351 12.0413 7.3445 12.5177 7.59202C13.0525 7.86994 13.7593 7.96998 14.261 7.83882C15.8637 7.4198 16.5105 5.31216 15.6546 3.29804C14.9238 1.57839 13.2929 0.524462 11.9432 0.899685C11.6702 0.975586 11.2512 1.20534 11.0642 1.38173C10.979 1.46205 10.8382 1.62761 10.7515 1.74956ZM0.492256 12.343C-0.24582 13.4797 -0.145173 15.2597 0.735189 16.6402C0.952207 16.9805 1.42548 17.5132 1.70987 17.7372C2.25629 18.1676 2.89301 18.411 3.48866 18.4171C5.47463 18.4375 6.44531 16.0404 5.3927 13.715C4.62292 12.0144 2.99137 11.0232 1.66139 11.448C1.15447 11.61 0.784063 11.8935 0.492256 12.343ZM19.6957 3.59553C19.4012 4.05208 19.2366 4.6082 19.211 5.23296C19.1754 6.09991 19.4206 7.00624 19.9161 7.83882C20.1485 8.22946 20.6877 8.81847 21.0484 9.07586C22.1255 9.84438 23.3535 9.85908 24.168 9.11319C25.0969 8.26251 25.2977 6.59361 24.6555 5.06106C24.1918 3.95446 23.2218 2.99886 22.261 2.70231C22.1295 2.66173 21.839 2.61918 21.6155 2.60776C20.8153 2.56687 20.1326 2.91814 19.6957 3.59553Z" fill="#2788FF"/>
</svg>
