<svg display="none" xmlns="http://www.w3.org/2000/svg">
	<symbol id="tg" viewBox="0 0 24 24">
		<path
			d="M21.5135 3.34957C21.1161 3.00593 20.5808 3 20.4815 3C19.7364 3.01185 18.87 3.31995 13.7871 5.5892C12.1039 6.34167 8.6877 7.91771 3.63797 10.2818C2.57835 10.738 2.07614 11.2001 2.00991 11.7867C1.8885 12.8473 2.90396 13.1909 3.89183 13.5227L4.26711 13.6531C5.01216 13.9138 6.37531 14.3522 7.13139 14.37C7.81021 14.37 8.55525 14.0974 9.33892 13.5227C12.0266 11.5734 13.7374 10.3469 14.8136 9.58262C13.9527 10.4654 12.9482 11.4727 12.4184 12C11.988 12.4266 11.6844 12.7347 11.6182 12.8058C11.4857 12.9539 11.3533 13.0902 11.2264 13.2265C10.6634 13.8071 10.1392 14.3522 10.1999 15.1165C10.2606 15.8453 10.8787 16.3608 11.3367 16.6866C12.0432 17.1843 12.6061 17.5991 13.1745 18.0138C13.7981 18.47 14.4163 18.9263 15.222 19.4891C15.4207 19.6313 15.6083 19.7735 15.7904 19.9157C16.4913 20.449 17.2088 21 18.1084 21C18.1801 21 18.2518 20.9941 18.3291 20.9881C18.9141 20.9289 19.6812 20.4668 20.0124 18.5945C20.5698 15.4009 21.7177 8.17248 21.9881 5.10928C22.0212 4.76564 21.9771 4.37459 21.955 4.21461C21.9329 4.07834 21.8667 3.65767 21.5135 3.34957ZM20.8954 4.99078C20.6305 7.97696 19.466 15.2943 18.9307 18.3693C18.7541 19.3943 18.456 19.7795 18.2353 19.8032C17.6393 19.8624 17.1094 19.4595 16.4361 18.944C16.243 18.7959 16.0388 18.6419 15.8291 18.4937C15.0288 17.9309 14.4163 17.4806 13.7981 17.0303C13.2297 16.6155 12.6613 16.2008 11.9493 15.6972C11.3533 15.2765 11.3091 15.0514 11.3036 15.004C11.2871 14.8084 11.6789 14.3996 11.9935 14.0737C12.1315 13.9315 12.2749 13.7834 12.4184 13.6234C12.4791 13.5583 12.7661 13.2679 13.1745 12.865C17.0708 8.97828 17.286 8.63463 17.3578 8.32061C17.4019 8.11323 17.4019 7.69256 17.1039 7.41409C16.9273 7.24227 16.7231 7.20079 16.5576 7.20079C16.4251 7.20079 16.3202 7.23041 16.254 7.24226C16.0829 7.28374 15.9229 7.32521 8.72633 12.5392C8.1303 12.9776 7.60601 13.2087 7.1645 13.185C6.723 13.1731 5.76824 12.9302 4.62032 12.5273L4.234 12.397C3.83113 12.2607 3.2958 12.0829 3.13575 11.9348C3.2075 11.8519 3.42273 11.6564 4.06844 11.3838L4.08499 11.3779C9.13473 9.01383 12.5454 7.43779 14.2231 6.69124C18.6989 4.69454 19.9296 4.20277 20.5146 4.19092C20.6194 4.17314 20.774 4.22646 20.8291 4.27386C20.8457 4.29164 20.8622 4.31534 20.8788 4.42199C20.8843 4.52271 20.9119 4.80119 20.8954 4.99078Z" />
	</symbol>

	<symbol id="checked" viewBox="0 0 24 24">
		<path
			d="M7.5 12L10.5 15L16.5 9M22 12C22 17.5228 17.5228 22 12 22C6.47715 22 2 17.5228 2 12C2 6.47715 6.47715 2 12 2C17.5228 2 22 6.47715 22 12Z"
			stroke-width="1.6" stroke-linecap="round" stroke-linejoin="round" />
	</symbol>

	<symbol id="view" viewBox="0 0 24 24">
		<path
			d="M2.42012 12.7132C2.28394 12.4975 2.21584 12.3897 2.17772 12.2234C2.14909 12.0985 2.14909 11.9015 2.17772 11.7766C2.21584 11.6103 2.28394 11.5025 2.42012 11.2868C3.54553 9.50484 6.8954 5 12.0004 5C17.1054 5 20.4553 9.50484 21.5807 11.2868C21.7169 11.5025 21.785 11.6103 21.8231 11.7766C21.8517 11.9015 21.8517 12.0985 21.8231 12.2234C21.785 12.3897 21.7169 12.4975 21.5807 12.7132C20.4553 14.4952 17.1054 19 12.0004 19C6.8954 19 3.54553 14.4952 2.42012 12.7132Z"
			stroke-width="1.6" stroke-linecap="round" stroke-linejoin="round" />
		<path
			d="M12.0004 15C13.6573 15 15.0004 13.6569 15.0004 12C15.0004 10.3431 13.6573 9 12.0004 9C10.3435 9 9.0004 10.3431 9.0004 12C9.0004 13.6569 10.3435 15 12.0004 15Z"
			stroke-width="1.6" stroke-linecap="round" stroke-linejoin="round" />
	</symbol>

	<symbol id="rating" viewBox="0 0 24 24">
		<path
			d="M13 2L4.09347 12.6879C3.74466 13.1064 3.57026 13.3157 3.56759 13.4925C3.56528 13.6461 3.63375 13.7923 3.75327 13.8889C3.89076 14 4.16319 14 4.70805 14H12L11 22L19.9066 11.3121C20.2554 10.8936 20.4298 10.6843 20.4324 10.5075C20.4348 10.3539 20.3663 10.2077 20.2468 10.1111C20.1093 10 19.8368 10 19.292 10H12L13 2Z"
			stroke-width="1.6" stroke-linecap="round" stroke-linejoin="round" />
	</symbol>

	<symbol id="close" viewBox="0 0 24 24">
		<path d="M17 7L7 17M7 7L17 17" stroke-width="2" stroke-linecap="round" stroke-linejoin="round" />
	</symbol>

	<symbol id="prev" viewBox="0 0 24 24">
		<path d="M15 18L9 12L15 6" stroke-width="2" stroke-linecap="round" stroke-linejoin="round" />
	</symbol>

	<symbol id="like" viewBox="0 0 24 24">
		<path
			d="M7 22V11M2 13V20C2 21.1046 2.89543 22 4 22H17.4262C18.907 22 20.1662 20.9197 20.3914 19.4562L21.4683 12.4562C21.7479 10.6389 20.3418 9 18.5032 9H15C14.4477 9 14 8.55228 14 8V4.46584C14 3.10399 12.896 2 11.5342 2C11.2093 2 10.915 2.1913 10.7831 2.48812L7.26394 10.4061C7.10344 10.7673 6.74532 11 6.35013 11H4C2.89543 11 2 11.8954 2 13Z"
			stroke-width="1.6" stroke-linecap="round" stroke-linejoin="round" />
	</symbol>

	<symbol id="dislike" viewBox="0 0 24 24">
		<path
			d="M17.0001 2V13M22.0001 9.8V5.2C22.0001 4.07989 22.0001 3.51984 21.7821 3.09202C21.5903 2.71569 21.2844 2.40973 20.908 2.21799C20.4802 2 19.9202 2 18.8001 2H8.11806C6.65658 2 5.92584 2 5.33563 2.26743C4.81545 2.50314 4.37335 2.88242 4.06129 3.36072C3.70722 3.90339 3.59611 4.62564 3.37388 6.07012L2.8508 9.47012C2.5577 11.3753 2.41114 12.3279 2.69386 13.0691C2.94199 13.7197 3.4087 14.2637 4.01398 14.6079C4.70358 15 5.66739 15 7.59499 15H8.40005C8.96011 15 9.24013 15 9.45404 15.109C9.64221 15.2049 9.79519 15.3578 9.89106 15.546C10.0001 15.7599 10.0001 16.0399 10.0001 16.6V19.5342C10.0001 20.896 11.104 22 12.4659 22C12.7907 22 13.0851 21.8087 13.217 21.5119L16.5778 13.9502C16.7306 13.6062 16.807 13.4343 16.9278 13.3082C17.0346 13.1967 17.1658 13.1115 17.311 13.0592C17.4753 13 17.6635 13 18.0398 13H18.8001C19.9202 13 20.4802 13 20.908 12.782C21.2844 12.5903 21.5903 12.2843 21.7821 11.908C22.0001 11.4802 22.0001 10.9201 22.0001 9.8Z"
			stroke-width="1.6" stroke-linecap="round" stroke-linejoin="round" />
	</symbol>

	<symbol id="bold-icon" viewBox="0 0 18 18">
		<path
			d="M4.5 9H10.5C12.1569 9 13.5 7.65685 13.5 6C13.5 4.34315 12.1569 3 10.5 3H4.5V9ZM4.5 9H11.25C12.9069 9 14.25 10.3431 14.25 12C14.25 13.6569 12.9069 15 11.25 15H4.5V9Z"
			stroke-width="2" stroke-linecap="round" stroke-linejoin="round" />
	</symbol>

	<symbol id="italic-icon" viewBox="0 0 18 18">
		<path d="M14.25 3H7.5M10.5 15H3.75M11.25 3L6.75 15" stroke-width="1.6" stroke-linecap="round"
			stroke-linejoin="round" />
	</symbol>

	<symbol id="underline-icon" viewBox="0 0 18 18">
		<path d="M13.5 3V8.25C13.5 10.7353 11.4853 12.75 9 12.75C6.51472 12.75 4.5 10.7353 4.5 8.25V3M3 15.75H15"
			stroke-width="1.6" stroke-linecap="round" stroke-linejoin="round" />
	</symbol>

	<symbol id="list-icon" viewBox="0 0 18 18">
		<path
			d="M15.75 9L6.75 9M15.75 4.5L6.75 4.5M15.75 13.5L6.75 13.5M3.75 9C3.75 9.41421 3.41421 9.75 3 9.75C2.58579 9.75 2.25 9.41421 2.25 9C2.25 8.58579 2.58579 8.25 3 8.25C3.41421 8.25 3.75 8.58579 3.75 9ZM3.75 4.5C3.75 4.91421 3.41421 5.25 3 5.25C2.58579 5.25 2.25 4.91421 2.25 4.5C2.25 4.08579 2.58579 3.75 3 3.75C3.41421 3.75 3.75 4.08579 3.75 4.5ZM3.75 13.5C3.75 13.9142 3.41421 14.25 3 14.25C2.58579 14.25 2.25 13.9142 2.25 13.5C2.25 13.0858 2.58579 12.75 3 12.75C3.41421 12.75 3.75 13.0858 3.75 13.5Z"
			stroke-width="1.3" stroke-linecap="round" stroke-linejoin="round" />
	</symbol>

</svg>